<svg width="1280" height="720" viewBox="0 0 1280 720" fill="none" xmlns="http://www.w3.org/2000/svg">
  <rect width="1280" height="720" rx="36" fill="#0A1734"/>
  <rect x="36" y="36" width="1208" height="648" rx="28" fill="#10244C"/>
  <path d="M332 180L448 148L590 198L680 164L776 238L896 258L958 342L916 440L812 520L660 566L512 540L404 464L328 338L332 180Z" fill="#17376F" stroke="#3A8DFF" stroke-width="8"/>
  <circle cx="444" cy="240" r="12" fill="#D9A441"/>
  <circle cx="560" cy="286" r="12" fill="#D9A441"/>
  <circle cx="642" cy="354" r="12" fill="#D9A441"/>
  <circle cx="730" cy="310" r="12" fill="#D9A441"/>
  <circle cx="804" cy="402" r="12" fill="#D9A441"/>
  <circle cx="566" cy="446" r="12" fill="#D9A441"/>
  <circle cx="432" cy="398" r="12" fill="#D9A441"/>
  <rect x="916" y="126" width="236" height="168" rx="24" fill="#0B1736" stroke="#D9A441" stroke-opacity="0.28"/>
  <text x="1034" y="182" text-anchor="middle" fill="#D9A441" font-family="Arial, sans-serif" font-size="28" font-weight="700">Coverage Map</text>
  <rect x="956" y="218" width="156" height="12" rx="6" fill="#D8E5FF" fill-opacity="0.78"/>
  <rect x="986" y="242" width="96" height="10" rx="5" fill="#9FC2FF" fill-opacity="0.5"/>
  <rect x="136" y="584" width="1008" height="42" rx="21" fill="#0B1736" stroke="#3A8DFF" stroke-opacity="0.24"/>
  <rect x="362" y="598" width="556" height="12" rx="6" fill="#D8E5FF" fill-opacity="0.78"/>
</svg>
