<svg width="860" height="940" viewBox="0 0 860 940" fill="none" xmlns="http://www.w3.org/2000/svg">
  <rect width="860" height="940" rx="36" fill="#0C1C3F"/>
  <rect x="36" y="36" width="788" height="868" rx="28" fill="url(#paint0_linear)"/>
  <circle cx="155" cy="164" r="64" fill="#D9A441" fill-opacity="0.12"/>
  <circle cx="710" cy="218" r="96" fill="#3A8DFF" fill-opacity="0.18"/>
  <rect x="118" y="192" width="624" height="560" rx="28" fill="#091329" stroke="#D9A441" stroke-opacity="0.25"/>
  <rect x="148" y="222" width="300" height="368" rx="24" fill="#163165"/>
  <rect x="480" y="222" width="232" height="170" rx="24" fill="#10254F"/>
  <rect x="480" y="422" width="232" height="170" rx="24" fill="#0F2148"/>
  <rect x="480" y="622" width="232" height="100" rx="24" fill="#10254F"/>
  <path d="M243 336C243 287.399 282.399 248 331 248C379.601 248 419 287.399 419 336V494H243V336Z" fill="#D9A441"/>
  <rect x="274" y="498" width="114" height="188" rx="24" fill="#D9A441"/>
  <rect x="243" y="686" width="176" height="36" rx="18" fill="#E7C680"/>
  <rect x="513" y="254" width="166" height="28" rx="14" fill="#3A8DFF" fill-opacity="0.4"/>
  <rect x="513" y="302" width="152" height="18" rx="9" fill="#90BFFF" fill-opacity="0.45"/>
  <rect x="513" y="454" width="166" height="28" rx="14" fill="#D9A441" fill-opacity="0.4"/>
  <rect x="513" y="502" width="144" height="18" rx="9" fill="#F3DCA9" fill-opacity="0.5"/>
  <rect x="513" y="654" width="166" height="18" rx="9" fill="#90BFFF" fill-opacity="0.4"/>
  <rect x="200" y="788" width="460" height="36" rx="18" fill="#0B1736" stroke="#3A8DFF" stroke-opacity="0.3"/>
  <rect x="188" y="786" width="484" height="56" rx="28" fill="#081227" stroke="#3A8DFF" stroke-opacity="0.25"/>
  <circle cx="224" cy="814" r="8" fill="#D9A441"/>
  <rect x="246" y="802" width="128" height="10" rx="5" fill="#D9A441" fill-opacity="0.8"/>
  <rect x="246" y="820" width="198" height="8" rx="4" fill="#9FC2FF" fill-opacity="0.65"/>
  <rect x="484" y="802" width="86" height="26" rx="13" fill="#17376F"/>
  <rect x="584" y="802" width="56" height="26" rx="13" fill="#D9A441"/>
  <defs>
    <linearGradient id="paint0_linear" x1="430" y1="36" x2="430" y2="904" gradientUnits="userSpaceOnUse">
      <stop stop-color="#10244C"/>
      <stop offset="1" stop-color="#081227"/>
    </linearGradient>
  </defs>
</svg>
